<svg width="78" height="77" viewBox="0 0 78 77" fill="none" xmlns="http://www.w3.org/2000/svg">
<path d="M38.7793 77C17.5496 77 0.279297 59.7283 0.279297 38.5C0.279297 17.2703 17.551 0 38.7793 0C60.009 0 77.2793 17.2717 77.2793 38.5C77.2793 59.7297 60.0076 77 38.7793 77ZM38.7793 4.14308C19.8345 4.14308 4.42233 19.5552 4.42233 38.5C4.42233 57.4448 19.8345 72.8569 38.7793 72.8569C57.7241 72.8569 73.1362 57.4448 73.1362 38.5C73.1362 19.5552 57.7241 4.14308 38.7793 4.14308Z" fill="#726DC6"/>
<path d="M53.3922 32.1639C42.8706 32.1639 42.8565 42.646 42.8565 42.6997C42.8565 42.6997 42.1358 53.1944 53.3922 53.1944C53.3922 53.1944 61.8648 53.6763 62.7113 47.0038C62.7862 46.4146 62.3284 45.8904 61.7363 45.8904H58.7915C58.3647 45.8904 57.9804 46.1617 57.8589 46.5714C57.6003 47.4433 56.6959 48.8408 53.5533 48.8408C53.5533 48.8408 49.4738 49.1121 48.821 45.1951C48.7221 44.6059 49.1968 44.0732 49.7932 44.0732H62.026C62.553 44.0732 62.9897 43.6592 63.0066 43.1321C63.1027 40.3215 62.5869 32.1639 53.3922 32.1639ZM49.4116 40.4035C49.0216 40.4035 48.7461 40.0262 48.8648 39.6559C49.2562 38.4435 50.4022 36.1841 53.4996 36.1841C56.6931 36.1841 57.4463 38.5707 57.6243 39.7534C57.6766 40.0968 57.4039 40.4035 57.0563 40.4035H49.4116ZM36.7733 37.9603C36.4285 37.8459 36.3777 37.3753 36.7027 37.21C37.8783 36.6137 39.2603 35.3108 39.2603 32.4847C39.2603 27.5843 35.8421 25.1807 31.5026 25.1807H17.9472C17.5488 25.1807 17.2266 25.5029 17.2266 25.9013V51.9C17.2266 52.2985 17.5488 52.6207 17.9472 52.6207H31.5012C31.5012 52.6207 40.2212 52.8878 40.2212 44.5154C40.2226 44.5168 40.5151 39.1953 36.7733 37.9603ZM23.5175 30.5757C23.5175 30.2888 23.7506 30.0557 24.0375 30.0557H31.5012C31.5012 30.0557 33.4371 30.0557 33.4371 32.9129C33.4371 35.77 32.3024 36.1841 31.0067 36.1841H24.0361C23.7492 36.1841 23.5161 35.951 23.5161 35.6641L23.5175 30.5757ZM31.1027 47.7471H24.0389C23.7521 47.7471 23.5189 47.5139 23.5189 47.2271V40.9235C23.5189 40.6366 23.7521 40.4035 24.0389 40.4035H31.5026C31.5026 40.4035 34.4008 40.3766 34.3867 44.182C34.3867 47.3868 32.2374 47.7217 31.1027 47.7471ZM47.4899 26.2772V28.6243C47.4899 28.9097 47.7202 29.14 48.0057 29.14H58.2983C58.5838 29.14 58.8141 28.9097 58.8141 28.6243V26.2772C58.8141 25.9918 58.5824 25.7614 58.2983 25.7614H48.0057C47.7216 25.7614 47.4899 25.9918 47.4899 26.2772Z" fill="#726DC6"/>
</svg>
