<svg width="78" height="77" viewBox="0 0 78 77" fill="none" xmlns="http://www.w3.org/2000/svg">
<path d="M39.0606 77C17.8309 77 0.560547 59.7283 0.560547 38.5C0.560547 17.2703 17.8323 0 39.0606 0C60.2903 0 77.562 17.2717 77.562 38.5C77.562 59.7283 60.2903 77 39.0606 77ZM39.0606 4.14166C20.1158 4.14166 4.70363 19.5538 4.70363 38.4986C4.70363 57.4434 20.1158 72.8555 39.0606 72.8555C58.0054 72.8555 73.4189 57.4434 73.4189 38.4986C73.4189 19.5552 58.0054 4.14166 39.0606 4.14166Z" fill="#726DC6"/>
<path d="M41.2309 15.3196C26.7132 14.0252 14.6004 26.138 15.8948 40.6557C16.8868 51.7849 25.8484 60.7464 36.9776 61.7384C51.4967 63.0327 63.6079 50.9201 62.3136 36.4024C61.323 25.2732 52.3601 16.3116 41.2309 15.3196ZM54.4288 27.0465C56.6444 29.9956 58.0278 33.6003 58.2341 37.5144C58.2468 37.7462 58.0292 37.9256 57.8017 37.879C53.5187 37.0114 49.4887 36.8531 45.6961 37.4085C45.5364 37.4325 45.3824 37.3435 45.3202 37.1951C44.885 36.1621 44.4399 35.166 43.9877 34.2051C43.9029 34.0256 43.982 33.8179 44.1629 33.7359C47.7083 32.1222 50.9936 29.9461 53.8904 27.014C54.043 26.8614 54.2988 26.8727 54.4288 27.0465ZM51.012 24.0382C48.4544 26.6565 45.5378 28.6207 42.2737 30.0832C42.1027 30.1595 41.9006 30.0874 41.8116 29.9235C39.5267 25.7494 37.2503 22.4909 35.5065 20.2385C35.344 20.0279 35.4614 19.7142 35.7228 19.6676C36.8207 19.4711 37.9512 19.3666 39.1042 19.3666C43.585 19.3666 47.7125 20.9125 50.9795 23.4998C51.1462 23.6326 51.1604 23.8855 51.012 24.0382ZM31.136 21.4042C32.7539 23.357 35.2635 26.689 37.8268 31.2588C37.9398 31.4595 37.8381 31.7195 37.6177 31.7845C32.6988 33.2187 27.1328 33.8476 20.9507 34.0821C20.7119 34.0906 20.5225 33.8645 20.5847 33.6328C22.0176 28.2166 25.7664 23.7329 30.705 21.3124C30.852 21.2403 31.03 21.277 31.136 21.4042ZM20.3007 38.2506C26.9463 38.0372 33.582 37.3858 39.6666 35.4584C39.8361 35.4047 40.0184 35.4811 40.0947 35.6421C40.4607 36.4123 40.8225 37.2106 41.1786 38.0316C41.2619 38.2252 41.1602 38.4484 40.961 38.5134C34.9159 40.4776 29.5223 44.4737 24.708 50.5272C24.5724 50.6982 24.3123 50.7151 24.1654 50.5541C21.4665 47.6191 20.0181 43.25 19.9545 38.6124C19.9489 38.4188 20.1057 38.2577 20.3007 38.2506ZM27.6853 53.4367C32.1266 47.7449 37.0143 44.0766 42.5308 42.3626C42.7145 42.3061 42.9138 42.4036 42.9774 42.5859C44.4046 46.5834 45.6085 51.0529 46.3715 55.9519C46.397 56.1173 46.3051 56.284 46.1483 56.3462C43.9665 57.2124 41.5897 57.6914 39.1014 57.6914C34.8551 57.6914 30.9297 56.2995 27.7503 53.9524C27.5907 53.8323 27.561 53.5964 27.6853 53.4367ZM50.1642 53.5187C49.4039 49.3021 48.3385 45.4035 47.1007 41.844C47.0258 41.6264 47.1699 41.3961 47.3988 41.3721C50.5796 41.0428 53.961 41.2788 57.5685 42.0659C57.7607 42.1083 57.8893 42.3018 57.8483 42.4954C56.886 47.0511 54.3016 51.0119 50.728 53.7476C50.5174 53.9072 50.2108 53.7801 50.1642 53.5187Z" fill="#726DC6"/>
</svg>
