<svg width="77" height="77" viewBox="0 0 77 77" fill="none" xmlns="http://www.w3.org/2000/svg">
<path d="M38.5014 77C17.2717 77 0 59.7283 0 38.5C0 17.2703 17.2717 0 38.5014 0C59.7311 0 77.0014 17.2717 77.0014 38.5C77.0014 59.7297 59.7311 77 38.5014 77ZM38.5014 4.14308C19.5566 4.14308 4.14308 19.5552 4.14308 38.5C4.14308 57.4448 19.5566 72.8569 38.5014 72.8569C57.4462 72.8569 72.8583 57.4448 72.8583 38.5C72.8583 19.5552 57.4462 4.14308 38.5014 4.14308Z" fill="#726DC6"/>
<path d="M60.269 41.4312V55.8062C60.269 56.1609 59.9807 56.4491 59.626 56.4491H52.2047C51.85 56.4491 51.5617 56.1609 51.5617 55.8062V42.4373C51.5617 38.9188 50.3041 36.5167 47.1516 36.5167C44.7451 36.5167 43.3166 38.1346 42.6849 39.7002C42.456 40.2598 42.3967 41.037 42.3967 41.8226V55.8062C42.3967 56.1609 42.1084 56.4491 41.7537 56.4491H34.3352C33.9791 56.4491 33.6908 56.1623 33.6923 55.8062C33.7092 52.2467 33.7841 34.9722 33.7078 30.9111C33.7008 30.5522 33.9904 30.2597 34.3507 30.2597H41.7552C42.1098 30.2597 42.3981 30.5479 42.3981 30.9026V33.9703C42.3811 34 42.3557 34.0283 42.3401 34.0565H42.3981V33.9703C43.5554 32.1899 45.6198 29.6436 50.2462 29.6436C55.9732 29.645 60.269 33.3882 60.269 41.4312ZM20.8109 56.4491H28.2294C28.5841 56.4491 28.8724 56.1609 28.8724 55.8062V30.9026C28.8724 30.5479 28.5841 30.2597 28.2294 30.2597H20.8109C20.4562 30.2597 20.168 30.5479 20.168 30.9026V55.8062C20.168 56.1623 20.4562 56.4491 20.8109 56.4491Z" fill="#726DC6"/>
<path d="M24.2613 26.9298C26.8358 26.9298 28.923 24.8427 28.923 22.2681C28.923 19.6936 26.8358 17.6064 24.2613 17.6064C21.6867 17.6064 19.5996 19.6936 19.5996 22.2681C19.5996 24.8427 21.6867 26.9298 24.2613 26.9298Z" fill="#726DC6"/>
</svg>
