<svg width="114" height="20" viewBox="0 0 114 20" fill="none" xmlns="http://www.w3.org/2000/svg">
<path d="M0.464844 1.00684H3.80957L7.59375 15.1182V19.0977H6.05566L0.464844 1.00684ZM12.4033 1.00684H15.7236L9.86426 19.0977H8.59473V14.3369L12.4033 1.00684ZM22.4131 19H19.4346V1.00684H22.4131V19ZM40.6504 1.00684V19H37.7207V10.8945H30.9336V8.89258H37.7207V1.00684H40.6504ZM26.9541 1.00684H29.9326V19H26.9541V1.00684ZM59.9375 19H56.9102L52.2471 5.52344L47.5352 19H44.4834L50.7822 1.03125H53.6875L59.9375 19ZM53.8584 13.2871L54.5664 15.2646H49.9033L50.5869 13.2871H53.8584ZM73.7559 1.00684H76.7344V19H73.7559L67.7012 8.35547V2.74023L73.7559 13.4092V1.00684ZM63.7217 19V1.00684H66.7002V19H63.7217ZM91.3584 4.47363C90.9678 4.00163 90.5202 3.65983 90.0156 3.44824C89.5111 3.23665 88.9902 3.13086 88.4531 3.13086H88.3555V0.713867H88.3799C89.3564 0.713867 90.2679 0.876628 91.1143 1.20215C91.9606 1.52767 92.7174 2.01595 93.3848 2.66699L91.3584 4.47363ZM80.8848 9.91797C80.8848 8.51823 81.0475 7.28125 81.373 6.20703C81.6986 5.11654 82.1462 4.19694 82.7158 3.44824C83.2855 2.68327 83.9691 2.08105 84.7666 1.6416C85.5641 1.20215 86.4268 0.925456 87.3545 0.811523V3.25293C86.8662 3.38314 86.4105 3.60286 85.9873 3.91211C85.5804 4.22135 85.2142 4.65267 84.8887 5.20605C84.5794 5.74316 84.3353 6.40234 84.1562 7.18359C83.9772 7.94857 83.8796 8.86003 83.8633 9.91797C83.8796 10.9759 83.9772 11.9036 84.1562 12.7012C84.3353 13.4987 84.5794 14.1904 84.8887 14.7764C85.2142 15.346 85.5804 15.8018 85.9873 16.1436C86.4105 16.4854 86.8662 16.7214 87.3545 16.8516V19.0732C86.4268 18.9593 85.5641 18.6826 84.7666 18.2432C83.9691 17.7874 83.2855 17.1771 82.7158 16.4121C82.1462 15.6471 81.6986 14.7275 81.373 13.6533C81.0475 12.5628 80.8848 11.3177 80.8848 9.91797ZM94.3125 9.72266V16.6807C93.9382 17.1527 93.515 17.5433 93.043 17.8525C92.5872 18.1455 92.099 18.3896 91.5781 18.585C91.0736 18.7803 90.5446 18.9186 89.9912 19C89.4541 19.0814 88.917 19.1221 88.3799 19.1221H88.3555V16.9736C88.5508 16.9736 88.7868 16.9655 89.0635 16.9492C89.3564 16.9167 89.6494 16.876 89.9424 16.8271C90.2516 16.762 90.5365 16.6807 90.7969 16.583C91.0736 16.4854 91.277 16.347 91.4072 16.168V11.7246H88.3555V9.72266H94.3125ZM113.282 19H110.255L105.592 5.52344L100.88 19H97.8281L104.127 1.03125H107.032L113.282 19ZM107.203 13.2871L107.911 15.2646H103.248L103.932 13.2871H107.203Z" fill="url(#paint0_linear_16_144)"/>
<defs>
<linearGradient id="paint0_linear_16_144" x1="-1" y1="9" x2="115" y2="9" gradientUnits="userSpaceOnUse">
<stop stop-color="white"/>
<stop offset="1" stop-color="#675CA8"/>
</linearGradient>
</defs>
</svg>
