<svg width="78" height="77" viewBox="0 0 78 77" fill="none" xmlns="http://www.w3.org/2000/svg">
<path d="M38.9409 77C17.7112 77 0.439453 59.7283 0.439453 38.5C0.439453 17.2703 17.7112 0 38.9409 0C60.1706 0 77.4409 17.2717 77.4409 38.5C77.4409 59.7283 60.1706 77 38.9409 77ZM38.9409 4.14166C19.9961 4.14166 4.58253 19.5538 4.58253 38.4986C4.58253 57.4434 19.9961 72.8555 38.9409 72.8555C57.8857 72.8555 73.2978 57.4434 73.2978 38.4986C73.2978 19.5552 57.8857 4.14166 38.9409 4.14166Z" fill="#726DC6"/>
<path d="M41.8806 50.8535C39.1266 50.6402 37.9693 49.2751 35.8101 47.9638C34.8479 53.0127 33.7118 57.8933 31.027 61.2211C30.2456 62.1904 28.6672 61.7029 28.605 60.4594C28.1995 52.4149 30.9775 46.0294 32.3425 39.2934C29.751 34.9299 32.6548 26.1463 38.1219 28.3097C44.8509 30.9705 32.2959 44.5358 40.7248 46.23C49.5253 47.9992 53.1172 30.9606 47.66 25.4186C39.7752 17.4179 24.7092 25.2363 26.5617 36.6905C26.9122 38.8666 28.7392 39.8656 28.5075 42.0177C28.3634 43.3544 26.9843 44.1246 25.7662 43.5551C22.276 41.923 21.1936 38.3494 21.3589 33.8008C21.6712 25.1148 29.1632 19.0344 36.6778 18.1922C46.182 17.1282 55.1012 21.6825 56.3319 30.6214C57.7181 40.712 52.0419 51.6392 41.8806 50.8535Z" fill="#726DC6"/>
</svg>
