<svg width="36" height="35" viewBox="0 0 36 35" fill="none" xmlns="http://www.w3.org/2000/svg">
<path d="M18 35C27.665 35 35.5 27.165 35.5 17.5C35.5 7.83502 27.665 0 18 0C8.33502 0 0.5 7.83502 0.5 17.5C0.5 27.165 8.33502 35 18 35Z" fill="#005CFF"/>
<path d="M16.0302 16.5206C16.0302 16.5206 18.2237 16.3571 18.2237 13.7846C18.2237 11.211 16.4294 9.95483 14.156 9.95483H6.67371V24.3344H14.156C14.156 24.3344 18.7224 24.4787 18.7224 20.0895C18.7224 20.0895 18.9215 16.5206 16.0302 16.5206ZM9.97081 12.5109H14.156C14.156 12.5109 15.1721 12.5109 15.1721 14.0077C15.1721 15.5023 14.5738 15.7194 13.8968 15.7205H9.97136V12.5109H9.97081ZM13.9624 21.7783H9.97081V17.9359H14.156C14.156 17.9359 15.6714 17.9168 15.6714 19.9107C15.6709 21.5743 14.5624 21.7613 13.9624 21.7783Z" fill="white"/>
<path d="M27.6545 10.802H21.7209V12.5722H27.6545V10.802Z" fill="white"/>
<path d="M24.8135 13.6133C19.2841 13.6133 19.2901 19.1378 19.2901 19.1378C19.2901 19.1378 18.9106 24.6334 24.8146 24.6334C24.8146 24.6334 29.7343 24.9161 29.7343 20.8102H27.2045C27.2045 20.8102 27.2881 22.3567 24.8988 22.3567C24.8988 22.3567 22.3684 22.5257 22.3684 19.8548H29.8191C29.8191 19.8548 30.6345 13.6133 24.8135 13.6133ZM22.3406 17.9358C22.3406 17.9358 22.649 15.7188 24.8709 15.7188C27.0924 15.7188 27.0645 17.9358 27.0645 17.9358H22.3406Z" fill="white"/>
</svg>
