<svg width="106" height="100" viewBox="0 0 106 100" fill="none" xmlns="http://www.w3.org/2000/svg">
<path d="M104.888 27.4426C103.877 20.9797 99.8697 18.5136 95.0242 17.7936C95.0265 17.7931 95.0287 17.7925 95.0311 17.7921C94.9987 17.7872 94.9653 17.7851 94.9329 17.7804C94.2026 17.6753 93.4542 17.6089 92.6939 17.5747C92.6357 17.5721 92.5778 17.5695 92.5195 17.5672C92.1391 17.5526 91.7566 17.544 91.3717 17.5438C91.3593 17.5438 91.3467 17.5442 91.3344 17.5442C90.9583 17.5444 90.5807 17.552 90.2021 17.5643C90.1479 17.5661 90.0938 17.5673 90.0395 17.5693C89.6589 17.5832 89.2778 17.6022 88.8966 17.6263C88.8414 17.6298 88.7864 17.6339 88.7312 17.6375C88.376 17.6612 88.0213 17.6881 87.6673 17.7187C87.626 17.7222 87.5848 17.7253 87.5436 17.7289C87.1706 17.762 86.7991 17.7987 86.4291 17.8377C86.3465 17.8464 86.2645 17.8553 86.182 17.8643C85.8296 17.9025 85.4785 17.9422 85.1306 17.9841C85.1183 17.9856 85.1057 17.9868 85.0933 17.9883C85.0936 17.9857 85.0939 17.983 85.0941 17.9803C85.1001 17.9222 85.1067 17.861 85.1126 17.8035C85.1407 17.5307 85.1675 17.266 85.1935 17.0082C85.2013 16.9301 85.2085 16.8569 85.2161 16.7802C85.2341 16.6004 85.2519 16.4212 85.2687 16.2492C85.2773 16.1615 85.2852 16.0787 85.2935 15.9931C85.3083 15.8404 85.323 15.6882 85.337 15.5421C85.3455 15.4525 85.3534 15.3674 85.3617 15.2805C85.3743 15.1462 85.3869 15.0128 85.3988 14.8847C85.4072 14.794 85.4152 14.7074 85.4233 14.6198C85.434 14.5036 85.4444 14.389 85.4545 14.2783C85.4624 14.1916 85.4698 14.1081 85.4773 14.0248C85.4866 13.9213 85.4956 13.8201 85.5043 13.7219C85.5114 13.6405 85.5184 13.5617 85.5252 13.484C85.5331 13.3933 85.5407 13.3059 85.548 13.2204C85.5544 13.1463 85.5606 13.0735 85.5666 13.0032C85.5738 12.9184 85.5806 12.8382 85.5871 12.7591C85.5924 12.697 85.5976 12.6352 85.6024 12.5766C85.6089 12.4977 85.6148 12.425 85.6207 12.3526C85.6247 12.3036 85.6288 12.2534 85.6325 12.2074C85.6383 12.1352 85.6435 12.0705 85.6486 12.0058C85.6516 11.9672 85.6549 11.9263 85.6578 11.8904C85.6635 11.8172 85.6685 11.7532 85.6732 11.6913C85.6745 11.6738 85.6762 11.6531 85.6775 11.6365C85.6834 11.5595 85.6885 11.4912 85.6927 11.4343C85.6808 11.521 85.6606 11.6074 85.6362 11.6934C85.629 11.7189 85.62 11.7444 85.6116 11.7699C85.5908 11.8332 85.5667 11.8964 85.5392 11.9594C85.5281 11.9849 85.5174 12.0104 85.5052 12.0357C85.4657 12.1178 85.422 12.1997 85.3711 12.2811C85.3693 12.284 85.3679 12.287 85.3662 12.2899C85.3129 12.3745 85.2517 12.4587 85.1863 12.5425C85.1678 12.5663 85.1476 12.59 85.128 12.6138C85.0765 12.6764 85.0217 12.7389 84.9636 12.801C84.9411 12.825 84.9191 12.8489 84.8958 12.8729C84.8186 12.9517 84.7373 13.0303 84.6495 13.1083C84.6454 13.112 84.6418 13.1158 84.6375 13.1196C84.5439 13.2023 84.4429 13.2845 84.3375 13.3663C84.3107 13.3871 84.2824 13.4078 84.2549 13.4285C84.1714 13.4914 84.0846 13.5539 83.9944 13.6163C83.9633 13.6377 83.9324 13.6592 83.9005 13.6806C83.7854 13.7578 83.6664 13.8346 83.5409 13.9108C83.5365 13.9135 83.5325 13.9162 83.5282 13.9188C83.3945 13.9997 83.2539 14.0801 83.1088 14.1598C83.0781 14.1768 83.0461 14.1935 83.0148 14.2104C82.897 14.274 82.7756 14.3372 82.6506 14.4001C82.6141 14.4185 82.5777 14.4369 82.5405 14.4552C82.2222 14.6122 81.8821 14.7668 81.52 14.9189C81.4907 14.9313 81.4605 14.9434 81.431 14.9556C81.2742 15.0207 81.1133 15.0853 80.9487 15.1495C80.9123 15.1637 80.8761 15.1778 80.8394 15.192C80.4445 15.3438 80.0285 15.4929 79.5909 15.6391C79.5689 15.6465 79.5462 15.6538 79.5241 15.6612C79.3248 15.7273 79.1211 15.7928 78.9133 15.8577C78.8804 15.8681 78.8475 15.8784 78.8144 15.8887C78.3438 16.0344 77.8528 16.1771 77.3406 16.3166C77.3336 16.3185 77.3265 16.3204 77.3195 16.3223C77.0722 16.3895 76.8196 16.4559 76.5629 16.5215C76.5377 16.528 76.5125 16.5345 76.4873 16.5409C75.6766 16.7471 74.8202 16.9456 73.9209 17.1358C73.9059 17.1389 73.8909 17.1421 73.8759 17.1453C72.9654 17.3372 72.0115 17.5207 71.017 17.6949C71.0087 17.6964 71.0004 17.6978 70.9921 17.6993C68.9818 18.051 66.807 18.3652 64.494 18.6365C60.7517 19.0755 56.6484 19.4024 52.2954 19.5943C51.5738 19.6261 50.8451 19.6541 50.1104 19.6784C50.089 19.6791 50.0677 19.6798 50.0463 19.6805C49.6178 19.6946 49.1829 19.7046 48.7501 19.7161C48.0842 19.7337 47.4133 19.748 46.7381 19.7594C46.4809 19.7637 46.2247 19.7687 45.9663 19.7721C45.0529 19.7841 44.134 19.792 43.2057 19.792C20.131 19.792 1.35191 16.0721 0.718506 11.4347C0.996795 15.1742 4.80606 63.0268 19.6612 93.8524C20.2044 96.9974 30.5238 99.5054 43.1791 99.5054C43.5324 99.5054 43.8838 99.5034 44.2332 99.4995C44.3511 99.4982 44.4676 99.4955 44.5851 99.4938C44.7568 99.4913 44.9287 99.4889 45.0994 99.4855C45.1179 99.4852 45.1366 99.485 45.1551 99.4846C45.1952 99.4837 45.2352 99.4829 45.2753 99.4821C45.4169 99.479 45.5569 99.4744 45.6978 99.4706C45.8996 99.4652 46.1018 99.4602 46.3022 99.4535C46.4548 99.4484 46.6058 99.442 46.7575 99.4362C46.8475 99.4328 46.9379 99.4297 47.0275 99.4259C47.041 99.4254 47.0546 99.425 47.068 99.4244C47.1507 99.421 47.2335 99.4176 47.316 99.4139C47.4736 99.4069 47.6296 99.3987 47.7861 99.3909C47.9623 99.3822 48.1388 99.3735 48.3136 99.3637C48.4743 99.3548 48.6333 99.3448 48.7928 99.3349C48.8328 99.3325 48.8732 99.3303 48.9131 99.3277C48.9166 99.3274 48.9203 99.3273 48.9238 99.327C49.0479 99.3192 49.172 99.3114 49.2953 99.3031C49.4579 99.2921 49.619 99.2803 49.7803 99.2685C49.9401 99.2567 50.0997 99.245 50.258 99.2325C50.4222 99.2195 50.5851 99.2057 50.7478 99.1918C50.9003 99.1788 51.0525 99.1657 51.2036 99.1519C51.3688 99.1368 51.5327 99.1211 51.6961 99.1052C51.8403 99.0911 51.9841 99.0768 52.1269 99.062C52.294 99.0448 52.4598 99.027 52.6248 99.0088C52.7605 98.9938 52.8955 98.9786 53.0299 98.9629C53.1983 98.9434 53.3656 98.9234 53.5318 98.9029C53.6583 98.8873 53.7838 98.8714 53.909 98.8552C54.08 98.8332 54.25 98.8108 54.4185 98.7877C54.5337 98.772 54.6477 98.7558 54.7617 98.7396C54.9364 98.7147 55.1102 98.6895 55.2822 98.6635C55.3848 98.6481 55.4861 98.6321 55.5876 98.6163C55.7672 98.5882 55.946 98.5599 56.1224 98.5307C56.2092 98.5162 56.2947 98.5014 56.3807 98.4867C56.5684 98.4547 56.7553 98.4224 56.9391 98.3891C57.006 98.3769 57.0714 98.3644 57.1377 98.3521C57.3367 98.3152 57.5345 98.278 57.7287 98.2395C57.7707 98.2312 57.8115 98.2226 57.8532 98.2141C58.0683 98.1709 58.2815 98.1272 58.4903 98.0822C58.4971 98.0808 58.5037 98.0793 58.5105 98.0778C61.6497 97.3998 64.0662 96.5173 65.4396 95.5127C65.4398 95.5125 65.4402 95.5123 65.4405 95.512C65.546 95.4349 65.6452 95.357 65.7382 95.2784C65.7385 95.2781 65.7388 95.2778 65.7392 95.2775C65.8323 95.1988 65.9189 95.1195 65.9991 95.0395L65.9992 95.0395C66.1321 94.9069 66.2525 94.773 66.3491 94.637H66.3678C66.3814 94.6094 66.3948 94.5813 66.4085 94.5536C66.5072 94.402 66.5809 94.2484 66.6328 94.0933C67.8079 91.6714 68.9141 89.1425 69.9555 86.5371C70.1485 86.054 70.3393 85.5682 70.5279 85.0801C70.5935 84.9101 70.6577 84.7386 70.7228 84.5681C70.8509 84.2329 70.9789 83.8977 71.1049 83.5603C71.1811 83.3562 71.2558 83.1508 71.3312 82.9461C71.4443 82.639 71.5574 82.3321 71.6689 82.0235C71.7472 81.8065 71.8243 81.5884 71.9018 81.3706C72.008 81.0722 72.1141 80.7737 72.2188 80.4739C72.2976 80.2481 72.3755 80.0216 72.4535 79.7951C72.5549 79.5007 72.6559 79.2061 72.7558 78.9105C72.8333 78.6812 72.9101 78.4513 72.9868 78.2212C73.0851 77.9263 73.1828 77.6311 73.2796 77.3351C73.3555 77.1032 73.431 76.871 73.506 76.6385C73.6017 76.342 73.6965 76.045 73.7908 75.7475C73.8644 75.5153 73.9379 75.2831 74.0107 75.0504C74.1047 74.7497 74.1977 74.4485 74.2902 74.147C74.3607 73.9175 74.4314 73.6881 74.5011 73.4583C74.5953 73.1473 74.6882 72.8358 74.781 72.5241C74.8095 72.4284 74.8386 72.333 74.8669 72.2373C75.1798 72.0143 75.4833 71.8015 75.7822 71.5936C75.8367 71.5557 75.8916 71.5174 75.9457 71.4799C76.2353 71.2793 76.5194 71.0845 76.797 70.8964C76.8338 70.8714 76.87 70.8471 76.9066 70.8224C78.92 69.4615 80.6298 68.405 82.2425 67.3477C82.2457 67.3456 82.2489 67.3435 82.2521 67.3414C84.1062 66.1255 85.834 64.9056 87.7457 63.2126C98.9593 53.2819 107.278 42.7251 104.888 27.4426ZM94.3701 40.872C94.0092 41.7808 93.6391 42.6006 93.3113 43.2662C93.3113 43.2662 92.9004 44.3899 91.3688 46.4623C90.2748 47.9425 88.609 49.9068 86.1126 52.2912C84.3651 53.9604 82.2107 55.8353 79.5607 57.8944C79.1821 58.1885 78.7934 58.4865 78.3943 58.788C78.4321 58.625 78.4689 58.4626 78.5063 58.2998C78.5754 57.9993 78.644 57.6991 78.7119 57.3992C78.765 57.1649 78.8177 56.9308 78.8699 56.6969C78.9368 56.398 79.0029 56.0996 79.0685 55.8014C79.1197 55.569 79.1709 55.3366 79.2212 55.1047C79.2869 54.8031 79.3515 54.5023 79.4158 54.2016C79.4642 53.9759 79.5127 53.7501 79.5603 53.525C79.6256 53.2164 79.6898 52.9089 79.7538 52.6015C79.7988 52.3855 79.8442 52.169 79.8886 51.9537C79.9553 51.6297 80.0206 51.3073 80.086 50.9847C80.1258 50.7882 80.1662 50.591 80.2055 50.395C80.2818 50.0145 80.3564 49.636 80.4308 49.2578C80.4575 49.1222 80.4849 48.9859 80.5113 48.8507C80.6115 48.3372 80.71 47.8259 80.8068 47.3171C80.8286 47.2021 80.8496 47.0885 80.8713 46.9737C80.9458 46.5796 81.0198 46.1861 81.0922 45.795C81.1263 45.6108 81.1592 45.4284 81.1929 45.245C81.2512 44.9269 81.3095 44.6087 81.3665 44.2928C81.403 44.0899 81.4387 43.8889 81.4747 43.6869C81.5277 43.3899 81.5807 43.093 81.6325 42.798C81.6688 42.5911 81.7043 42.3857 81.7401 42.1799C81.7892 41.8969 81.8382 41.6143 81.8863 41.3334C81.923 41.1192 81.959 40.9063 81.995 40.6933C82.041 40.4213 82.0867 40.1501 82.1317 39.8802C82.1671 39.6678 82.202 39.4566 82.2368 39.2456C82.2808 38.9781 82.3244 38.7119 82.3675 38.4467C82.4013 38.2385 82.4349 38.0309 82.4681 37.8242C82.5113 37.5555 82.5538 37.2886 82.5959 37.0224C82.6273 36.8242 82.6586 36.6261 82.6894 36.4293C82.7318 36.1584 82.7733 35.8898 82.8147 35.6216C82.8439 35.4322 82.8733 35.2424 82.902 35.0544C82.9435 34.7819 82.9841 34.5124 83.0246 34.2429C83.0517 34.0624 83.0792 33.8809 83.1058 33.7018C83.1479 33.4188 83.1888 33.1396 83.2296 32.8602C83.2529 32.7009 83.2767 32.54 83.2996 32.3819C83.349 32.0411 83.397 31.7048 83.4446 31.3697C83.4578 31.277 83.4716 31.1824 83.4846 31.0902C83.5449 30.6639 83.6036 30.2426 83.6609 29.8262C83.6762 29.7151 83.6908 29.6071 83.7059 29.4968C83.7476 29.1915 83.7892 28.887 83.8294 28.5874C83.8491 28.4411 83.8678 28.2983 83.8871 28.1535C83.8994 28.0611 83.9117 27.9686 83.9239 27.8768C84.8424 28.1156 85.9482 28.128 87.0873 28.0777C87.2772 28.0692 87.468 28.0592 87.659 28.048C88.0409 28.0258 88.4238 27.9997 88.8017 27.9757C88.9992 27.9631 89.1951 27.9513 89.389 27.9408C89.7474 27.9214 90.0985 27.9069 90.4372 27.9029C90.4415 27.9029 90.4461 27.9025 90.4504 27.9025C91.1514 27.8946 91.7987 27.9316 92.3466 28.0621C97.7762 29.3545 96.1955 36.2752 94.3701 40.872ZM77.5913 62.1484C77.5918 62.1466 77.5922 62.1449 77.5927 62.1431C77.5925 62.1437 77.5924 62.1442 77.5923 62.1447C77.5919 62.1459 77.5916 62.1472 77.5913 62.1484ZM84.9806 19.0597C84.9834 19.0338 84.9861 19.008 84.9888 18.9823C84.9861 19.0081 84.9834 19.0337 84.9806 19.0597Z" fill="#2A9D8F"/>
<path d="M68.5418 4.2876C74.1501 6.32439 77.5739 8.58169 77.5739 9.83162C77.5739 12.4822 62.1828 14.6309 43.1968 14.6309C24.2109 14.6309 8.81986 12.4822 8.81986 9.83162C8.81986 8.58262 12.2385 6.32762 17.8397 4.29202C7.43817 5.8596 0.700928 8.36685 0.700928 11.1925C0.700928 15.9418 19.731 19.7918 43.2057 19.7918C66.6805 19.7918 85.7106 15.9418 85.7106 11.1925C85.7105 8.36414 78.9601 5.85479 68.5418 4.2876Z" fill="#F6F6F6"/>
<path d="M104.888 27.4428C103.219 16.7742 93.3891 16.9878 85.0934 17.9886C84.8166 20.6608 84.4341 24.02 83.9239 27.8768C86.3733 28.5136 90.1552 27.5402 92.3468 28.0621C98.8495 29.6103 95.2969 39.2345 93.3113 43.2663C93.3113 43.2663 91.1647 49.1372 78.3943 58.7882C77.3591 63.2513 76.1882 67.7751 74.8671 72.2371C80.3816 68.3066 83.6343 66.8535 87.7459 63.2124C98.9593 53.2821 107.277 42.7253 104.888 27.4428Z" fill="#195E56"/>
<path d="M43.2057 17.3525C64.7336 17.3525 82.1854 14.5945 82.1854 11.1924C82.1854 7.79022 64.7336 5.03223 43.2057 5.03223C21.6778 5.03223 4.22595 7.79022 4.22595 11.1924C4.22595 14.5945 21.6778 17.3525 43.2057 17.3525Z" fill="#BC8B6E"/>
<path d="M77.5899 9.83166C77.5899 12.4823 62.1956 14.631 43.2057 14.631C24.2158 14.631 8.82153 12.4823 8.82153 9.83166C8.82153 7.18105 24.2158 0 43.2057 0C62.1955 0 77.5899 7.18105 77.5899 9.83166Z" fill="#F5E6D3"/>
<path d="M71.8694 22.442C73.0566 23.4456 74.1818 24.6761 74.8467 26.0931C75.5384 27.5675 75.8314 29.1976 75.9498 30.8119C76.2141 34.4169 75.6866 38.0542 75.4153 41.6452C74.6676 51.5445 73.3404 61.3949 72.2491 71.2598C71.6807 76.3983 70.8802 81.5042 69.9367 86.5849C82.1617 56.0338 85.4358 14.8899 85.6929 11.4343C85.2725 14.5126 76.8548 17.1861 64.4941 18.6362C67.1451 19.5281 69.6988 20.6069 71.8694 22.442Z" fill="#195E56"/>
<path d="M65.9993 95.0391C63.4277 97.6047 54.1923 99.5051 43.1791 99.5051C30.5238 99.5051 20.2044 96.997 19.6612 93.8521C4.80599 63.0264 0.996795 15.1738 0.718506 11.4343C1.35191 16.0717 20.131 19.7916 43.2057 19.7916C46.326 19.7916 49.3668 19.723 52.2958 19.5939L37.4371 27.721C36.2704 28.6002 35.2436 29.6628 34.5358 30.9493C33.7238 32.4252 33.3692 34.0968 33.2859 35.7682C33.2292 36.9085 33.3051 38.0417 33.4277 39.1751C33.5908 40.6825 33.7664 42.1886 33.9504 43.6936L37.9989 83.6567C38.2426 85.1329 38.5619 86.6364 39.195 88.0008C39.7633 89.2255 40.6613 90.2332 41.8261 90.9192C43.3404 91.811 45.1028 92.2472 46.8197 92.5432L65.9993 95.0391Z" fill="#195E56"/>
<path d="M71.0914 5.28429C71.4118 6.6297 71.7382 8.30478 70.9366 9.52134C70.5746 10.0707 70.0202 10.4478 69.4253 10.7084C68.5781 11.0796 67.6599 11.2693 66.7508 11.4158C65.3748 11.6377 63.9793 11.778 62.5922 11.9079C60.9693 12.0599 59.3418 12.1628 57.7132 12.2283C54.405 12.3613 51.0914 12.3424 47.7831 12.2236C44.6467 12.1111 41.5207 11.8809 38.3928 11.635C37.141 11.5366 35.8823 11.3773 34.6672 11.0521C33.8494 10.8333 33.0199 10.5371 32.3207 10.0491C31.8295 9.70632 31.4071 9.26303 31.1846 8.69973C30.9841 8.19202 30.9813 7.63352 31.1035 7.10655C31.2055 6.6663 31.3852 6.2486 31.6074 5.84944C31.5776 5.85115 31.5486 5.85412 31.518 5.85412C31.0637 5.85412 30.6954 5.66242 30.6954 5.42594C30.6954 5.18946 31.0637 4.99775 31.518 4.99775C31.7354 4.99775 31.9318 5.04253 32.0789 5.11428C32.4682 4.58164 32.9194 4.09035 33.3643 3.64515C34.65 2.35875 36.1314 1.26459 37.6637 0.291299C37.7186 0.256413 37.7754 0.224497 37.8304 0.189941C21.3941 1.34168 8.82153 7.43635 8.82153 9.83168C8.82153 12.4823 24.2158 14.631 43.2057 14.631C62.1956 14.631 77.5899 12.4823 77.5899 9.83168C77.5898 8.78322 75.179 7.02577 71.0914 5.28429Z" fill="#EED1BD"/>
<path d="M99.6813 32.3449C99.4008 30.3581 98.345 28.3163 96.6733 27.149C95.1779 26.1046 93.3597 25.5576 91.9826 24.3354C91.3899 23.8094 90.9316 23.1314 90.8724 22.3232C90.7943 21.2571 91.3906 20.2414 92.0113 19.425C92.7384 18.4688 93.8793 18.0057 95.0311 17.7924C91.8764 17.3225 88.3656 17.5941 85.0934 17.9886C84.8166 20.6608 84.4341 24.02 83.9239 27.8769C86.3733 28.5137 90.1552 27.5403 92.3469 28.0621C98.8495 29.6104 95.297 39.2345 93.3113 43.2664C93.3113 43.2664 91.1647 49.1373 78.3943 58.7883C77.3591 63.2513 76.1882 67.7751 74.8672 72.2371C78.2366 69.8355 80.7609 68.3581 83.1534 66.7421C82.9055 66.2648 82.6644 65.784 82.4475 65.2914C81.9092 64.0689 81.3784 62.6289 81.5441 61.2671C81.6987 59.9967 82.4484 58.8377 83.2486 57.8761C84.1361 56.8095 85.1847 55.8898 86.2286 54.9811C87.8013 53.612 89.3205 52.1829 90.7404 50.6547C92.3375 48.9357 93.8306 47.1147 95.1716 45.1886C96.5661 43.1857 97.823 41.0529 98.6996 38.7691C99.4769 36.7433 99.9885 34.5211 99.6813 32.3449Z" fill="#124B44"/>
<path d="M44.5631 4.06411C45.3434 4.06411 45.9759 3.73485 45.9759 3.32868C45.9759 2.92252 45.3434 2.59326 44.5631 2.59326C43.7829 2.59326 43.1504 2.92252 43.1504 3.32868C43.1504 3.73485 43.7829 4.06411 44.5631 4.06411Z" fill="#5D2C14"/>
<path d="M48.7211 7.3155C48.7211 7.72166 48.0885 8.05092 47.3083 8.05092C46.5281 8.05092 45.8955 7.72166 45.8955 7.3155C45.8955 6.90934 46.5281 6.58008 47.3083 6.58008C48.0885 6.58008 48.7211 6.90934 48.7211 7.3155Z" fill="#5D2C14"/>
<path d="M53.2365 4.06242C53.8013 4.06242 54.2591 3.8241 54.2591 3.53011C54.2591 3.23613 53.8013 2.9978 53.2365 2.9978C52.6718 2.9978 52.214 3.23613 52.214 3.53011C52.214 3.8241 52.6718 4.06242 53.2365 4.06242Z" fill="#5D2C14"/>
<path d="M39.3572 2.20613C39.3572 2.38418 39.0799 2.52854 38.7379 2.52854C38.396 2.52854 38.1187 2.38418 38.1187 2.20613C38.1187 2.02808 38.396 1.88379 38.7379 1.88379C39.08 1.88372 39.3572 2.02808 39.3572 2.20613Z" fill="#5D2C14"/>
<path d="M56.914 3.65095C56.914 3.82901 56.6367 3.97336 56.2947 3.97336C55.9526 3.97336 55.6754 3.82901 55.6754 3.65095C55.6754 3.47297 55.9527 3.32861 56.2947 3.32861C56.6367 3.32861 56.914 3.47297 56.914 3.65095Z" fill="#5D2C14"/>
<path d="M50.853 3.65095C50.853 3.82901 50.5757 3.97336 50.2337 3.97336C49.8916 3.97336 49.6144 3.82901 49.6144 3.65095C49.6144 3.47297 49.8916 3.32861 50.2337 3.32861C50.5757 3.32861 50.853 3.47297 50.853 3.65095Z" fill="#5D2C14"/>
<path d="M40.2862 7.31526C40.2862 7.49331 40.009 7.63767 39.6669 7.63767C39.3248 7.63767 39.0476 7.49331 39.0476 7.31526C39.0476 7.13727 39.3249 6.99292 39.6669 6.99292C40.009 6.99292 40.2862 7.13727 40.2862 7.31526Z" fill="#5D2C14"/>
<path d="M41.7183 5.14303C41.7183 5.43793 41.2591 5.67698 40.6926 5.67698C40.1261 5.67698 39.6669 5.43793 39.6669 5.14303C39.6669 4.84818 40.1261 4.60913 40.6926 4.60913C41.2591 4.60913 41.7183 4.84818 41.7183 5.14303Z" fill="#5D2C14"/>
<path d="M59.1959 5.94404C59.1959 6.18626 58.8187 6.38271 58.3532 6.38271C57.8878 6.38271 57.5105 6.18632 57.5105 5.94404C57.5105 5.70176 57.8878 5.50537 58.3532 5.50537C58.8187 5.50531 59.1959 5.70176 59.1959 5.94404Z" fill="#5D2C14"/>
<path d="M55.7739 7.3153C55.7739 7.5353 55.4312 7.71368 55.0086 7.71368C54.586 7.71368 54.2434 7.5353 54.2434 7.3153C54.2434 7.09531 54.586 6.91699 55.0086 6.91699C55.4312 6.91699 55.7739 7.09531 55.7739 7.3153Z" fill="#5D2C14"/>
<path d="M35.6642 4.06399C35.6642 4.3589 35.205 4.59795 34.6385 4.59795C34.072 4.59795 33.6128 4.3589 33.6128 4.06399C33.6128 3.76908 34.072 3.53003 34.6385 3.53003C35.205 3.5301 35.6642 3.76915 35.6642 4.06399Z" fill="#5D2C14"/>
<path d="M55.6754 5.50539C55.6754 5.8003 55.2162 6.03935 54.6497 6.03935C54.0832 6.03935 53.624 5.8003 53.624 5.50539C53.624 5.21049 54.0833 4.97144 54.6497 4.97144C55.2162 4.97144 55.6754 5.21049 55.6754 5.50539Z" fill="#5D2C14"/>
<path d="M38.7378 4.07906C38.7378 4.31554 38.3696 4.50724 37.9153 4.50724C37.4611 4.50724 37.0928 4.31554 37.0928 4.07906C37.0928 3.84258 37.461 3.65088 37.9153 3.65088C38.3696 3.65088 38.7378 3.84265 38.7378 4.07906Z" fill="#5D2C14"/>
<path d="M47.4814 1.48657C47.6499 1.48657 47.8089 1.539 47.964 1.58345C48.0979 1.93599 47.6604 2.3012 47.3031 2.24369C47.0567 2.20406 46.4473 1.78425 46.6795 1.57567C46.6795 1.57567 46.8354 1.53115 47.4814 1.48657Z" fill="#5D2C14"/>
<path d="M51.7068 4.89307C51.8753 4.89307 52.0343 4.94549 52.1893 4.98994C52.3233 5.34248 51.8858 5.70769 51.5284 5.65018C51.2821 5.61055 50.6727 5.19068 50.9048 4.98216C50.9048 4.98216 51.0607 4.93758 51.7068 4.89307Z" fill="#5D2C14"/>
<path d="M47.3756 4.47076C47.1183 4.45328 47.018 4.7445 47.2596 4.87283C47.382 4.93785 47.8372 4.87645 47.9707 4.84816C48.0495 4.83148 48.2229 4.84909 48.2201 4.71785C48.2166 4.54475 48.0318 4.66741 47.9559 4.60278C47.8816 4.53954 47.855 4.37626 47.7931 4.34243C47.6738 4.27714 47.4943 4.35806 47.4336 4.35469" fill="#5D2C14"/>
<path d="M42.7247 1.3931C42.4476 1.39725 41.9403 1.59595 42.3953 1.81594C42.6403 1.93438 43.1288 1.8346 43.3767 1.77341C43.4071 1.33414 42.912 1.32458 42.6085 1.43181" fill="#5D2C14"/>
<path d="M51.3644 6.76297C51.0873 6.76713 50.5801 6.96582 51.035 7.18581C51.2799 7.30425 51.7685 7.20447 52.0164 7.14328C52.0469 6.70402 51.5517 6.69445 51.2483 6.80168" fill="#5D2C14"/>
<path d="M36.7582 5.44705C36.4811 5.45121 35.9739 5.6499 36.4288 5.8699C36.6737 5.98833 37.1623 5.88856 37.4102 5.82736C37.4406 5.3881 36.9455 5.37854 36.6421 5.48576" fill="#5D2C14"/>
<path d="M50.3595 2.42172C50.3595 2.51655 50.1927 2.59344 49.9869 2.59344C49.7811 2.59344 49.6144 2.51655 49.6144 2.42172C49.6144 2.32689 49.7812 2.25 49.9869 2.25C50.1927 2.25 50.3595 2.32689 50.3595 2.42172Z" fill="#5D2C14"/>
<path d="M52.8877 2.18031C52.8877 2.31345 52.6535 2.4214 52.3646 2.4214C52.0757 2.4214 51.8414 2.31345 51.8414 2.18031C51.8414 2.0471 52.0757 1.93921 52.3646 1.93921C52.6535 1.93921 52.8877 2.04716 52.8877 2.18031Z" fill="#5D2C14"/>
<path d="M49.9869 5.50522C49.9869 5.60005 49.8201 5.67694 49.6143 5.67694C49.4086 5.67694 49.2418 5.60011 49.2418 5.50522C49.2418 5.41039 49.4086 5.3335 49.6143 5.3335C49.8201 5.3335 49.9869 5.41039 49.9869 5.50522Z" fill="#5D2C14"/>
<path d="M41.4874 3.53012C41.4874 3.62495 41.3206 3.70184 41.1149 3.70184C40.9091 3.70184 40.7423 3.62495 40.7423 3.53012C40.7423 3.43529 40.9091 3.3584 41.1149 3.3584C41.3206 3.3584 41.4874 3.43529 41.4874 3.53012Z" fill="#5D2C14"/>
<path d="M32.9597 3.55281C32.9597 3.73086 32.6824 3.87522 32.3404 3.87522C31.9983 3.87522 31.7211 3.73086 31.7211 3.55281C31.7211 3.37476 31.9984 3.23047 32.3404 3.23047C32.6824 3.2304 32.9597 3.37476 32.9597 3.55281Z" fill="#5D2C14"/>
<path d="M36.2835 7.95156C36.2835 8.12961 36.0063 8.2739 35.6642 8.2739C35.3222 8.2739 35.0449 8.12954 35.0449 7.95156C35.0449 7.77351 35.3222 7.62915 35.6642 7.62915C36.0063 7.62915 36.2835 7.77351 36.2835 7.95156Z" fill="#5D2C14"/>
<path d="M35.3208 6.4897C35.3208 6.78461 34.8616 7.02366 34.2951 7.02366C33.7286 7.02366 33.2694 6.78461 33.2694 6.4897C33.2694 6.1948 33.7287 5.95581 34.2951 5.95581C34.8616 5.95581 35.3208 6.19486 35.3208 6.4897Z" fill="#5D2C14"/>
<path d="M29.2668 5.41067C29.2668 5.70558 28.8075 5.94456 28.241 5.94456C27.6745 5.94456 27.2153 5.70558 27.2153 5.41067C27.2153 5.11576 27.6746 4.87671 28.241 4.87671C28.8076 4.87677 29.2668 5.11583 29.2668 5.41067Z" fill="#5D2C14"/>
<path d="M32.3404 5.42574C32.3404 5.66222 31.9721 5.85392 31.5178 5.85392C31.0636 5.85392 30.6953 5.66222 30.6953 5.42574C30.6953 5.18926 31.0635 4.99756 31.5178 4.99756C31.9721 4.99762 32.3404 5.18933 32.3404 5.42574Z" fill="#5D2C14"/>
<path d="M29.7783 7.22415C29.5012 7.22831 28.9939 7.427 29.4489 7.64699C29.6938 7.76543 30.1823 7.66566 30.4303 7.60446C30.4607 7.1652 29.9655 7.15564 29.6621 7.26286" fill="#5D2C14"/>
<path d="M36.0369 2.42172C36.0369 2.51655 35.8701 2.59344 35.6643 2.59344C35.4586 2.59344 35.2917 2.51655 35.2917 2.42172C35.2917 2.32689 35.4585 2.25 35.6643 2.25C35.8701 2.25 36.0369 2.32689 36.0369 2.42172Z" fill="#5D2C14"/>
<path d="M43.7505 7.95151C43.7505 8.04634 43.5837 8.12323 43.378 8.12323C43.1722 8.12323 43.0054 8.04634 43.0054 7.95151C43.0054 7.85668 43.1721 7.77979 43.378 7.77979C43.5837 7.77979 43.7505 7.85668 43.7505 7.95151Z" fill="#5D2C14"/>
<path d="M44.6503 5.67709C44.6503 5.77192 44.4919 5.84882 44.2966 5.84882C44.1012 5.84882 43.9429 5.77199 43.9429 5.67709C43.9429 5.58226 44.1012 5.50537 44.2966 5.50537C44.4919 5.50537 44.6503 5.58226 44.6503 5.67709Z" fill="#5D2C14"/>
</svg>
