<svg width="36" height="35" viewBox="0 0 36 35" fill="none" xmlns="http://www.w3.org/2000/svg">
<path d="M18 35C27.665 35 35.5 27.165 35.5 17.5C35.5 7.83501 27.665 0 18 0C8.33502 0 0.5 7.83501 0.5 17.5C0.5 27.165 8.33502 35 18 35Z" fill="#B735B7"/>
<path d="M22.6464 7.02197H13.1647C9.9476 7.02197 7.33936 9.63021 7.33936 12.8473V22.329C7.33936 25.5461 9.9476 28.1543 13.1647 28.1543H22.6464C25.8635 28.1543 28.4717 25.5461 28.4717 22.329V12.8473C28.4717 9.63021 25.8635 7.02197 22.6464 7.02197ZM26.7641 22.3048C26.7641 24.5921 24.9095 26.4467 22.6222 26.4467H13.1889C10.9016 26.4467 9.04699 24.5921 9.04699 22.3048V12.8715C9.04699 10.5842 10.9016 8.72962 13.1889 8.72962H22.6222C24.9095 8.72962 26.7641 10.5842 26.7641 12.8715V22.3048Z" fill="white"/>
<path d="M17.9055 12.0188C14.8299 12.0188 12.3367 14.512 12.3367 17.5876C12.3367 20.6632 14.8299 23.1564 17.9055 23.1564C20.9811 23.1564 23.4743 20.6632 23.4743 17.5876C23.4743 14.5125 20.9811 12.0188 17.9055 12.0188ZM17.9055 21.2203C15.8995 21.2203 14.2734 19.5941 14.2734 17.5881C14.2734 15.5821 15.8995 13.956 17.9055 13.956C19.9115 13.956 21.5377 15.5821 21.5377 17.5881C21.5377 19.5941 19.9115 21.2203 17.9055 21.2203Z" fill="white"/>
<path d="M24.9133 11.8338C24.9133 12.5235 24.354 13.0829 23.6642 13.0829C22.9745 13.0829 22.4152 12.5235 22.4152 11.8338C22.4152 11.144 22.9745 10.5847 23.6642 10.5847C24.3534 10.5842 24.9133 11.1435 24.9133 11.8338Z" fill="white"/>
</svg>
