<svg width="36" height="35" viewBox="0 0 36 35" fill="none" xmlns="http://www.w3.org/2000/svg">
<path d="M18 35C27.665 35 35.5 27.165 35.5 17.5C35.5 7.83502 27.665 0 18 0C8.33502 0 0.5 7.83502 0.5 17.5C0.5 27.165 8.33502 35 18 35Z" fill="#3E6DC1"/>
<path d="M28.5607 19.6642V27.07H24.2672V20.1607C24.2672 18.4255 23.647 17.241 22.0928 17.241C20.9066 17.241 20.2017 18.0389 19.8905 18.8111C19.7773 19.0872 19.7484 19.4706 19.7484 19.8578V27.07H15.4543C15.4543 27.07 15.5117 15.3679 15.4543 14.1561H19.7484V15.9859C19.7396 16.0007 19.7276 16.0143 19.7199 16.028H19.7484V15.9859C20.3188 15.1082 21.3365 13.8525 23.618 13.8525C26.4432 13.8525 28.5607 15.6982 28.5607 19.6642ZM8.78789 27.07H13.0803V14.1561H8.78789V27.07ZM13.2083 9.77395C13.2083 10.9946 12.219 11.9844 10.9978 11.9844C9.77719 11.9844 8.78735 10.9951 8.78735 9.77395C8.78735 8.55332 9.77719 7.56348 10.9978 7.56348C12.219 7.56402 13.2083 8.55332 13.2083 9.77395Z" fill="white"/>
</svg>
