<svg width="36" height="35" viewBox="0 0 36 35" fill="none" xmlns="http://www.w3.org/2000/svg">
<path d="M18 0C8.33508 0 0.5 7.83496 0.5 17.4997C0.5 24.807 4.98054 31.0653 11.3429 33.6853C11.0946 28.5224 12.8703 24.4149 13.7475 20.0859C12.0768 17.2733 13.9487 11.6122 17.4728 13.0072C21.8101 14.7227 13.718 23.4655 19.1501 24.557C24.8217 25.6967 27.1366 14.7162 23.6197 11.1446C18.5381 5.98764 8.82726 11.027 10.0216 18.4092C10.3126 20.2138 12.1774 20.7618 10.7665 23.2522C7.51422 22.532 6.54406 19.9666 6.66875 16.5471C6.87 10.9494 11.6984 7.02942 16.5415 6.48748C22.6665 5.80225 28.4152 8.73674 29.2093 14.498C30.1023 21.0013 26.4443 28.0433 19.8949 27.5375C18.1198 27.4002 17.3744 26.5203 15.982 25.6748C15.3597 28.9385 14.6252 32.0929 12.8834 34.2382C14.5022 34.7326 16.2194 35 18 35C27.6649 35 35.5 27.165 35.5 17.5003C35.5 7.83496 27.6649 0 18 0Z" fill="#B31217"/>
</svg>
