<svg width="36" height="35" viewBox="0 0 36 35" fill="none" xmlns="http://www.w3.org/2000/svg">
<path d="M18 35C27.665 35 35.5 27.165 35.5 17.5C35.5 7.83502 27.665 0 18 0C8.33502 0 0.5 7.83502 0.5 17.5C0.5 27.165 8.33502 35 18 35Z" fill="#E52D27"/>
<path fill-rule="evenodd" clip-rule="evenodd" d="M27.4522 13.7103C27.4522 12.149 26.1878 10.884 24.6265 10.884H11.3729C9.81162 10.884 8.54724 12.149 8.54724 13.7103V21.29C8.54724 22.8507 9.81162 24.1168 11.3729 24.1168H24.6265C26.1878 24.1168 27.4522 22.8507 27.4522 21.29V13.7103ZM16.1094 20.6977V13.579L21.5087 17.1381L16.1094 20.6977Z" fill="white"/>
</svg>
